<svg width="343" height="252" viewBox="0 0 343 252" fill="none" xmlns="http://www.w3.org/2000/svg">
<mask id="path-1-inside-1_1_602" fill="white">
<path fill-rule="evenodd" clip-rule="evenodd" d="M343 14C343 6.26801 336.732 0 329 0H14C6.26801 0 0 6.26802 0 14V238C0 245.732 6.26802 252 14 252H300.842C305.884 252 310.536 249.289 313.022 244.902L341.18 195.211C342.373 193.106 343 190.728 343 188.309V14Z"/>
</mask>
<path d="M341.18 195.211L342.05 195.704L341.18 195.211ZM313.022 244.902L313.892 245.395L313.022 244.902ZM14 1H329V-1H14V1ZM1 238V14H-1V238H1ZM300.842 251H14V253H300.842V251ZM313.892 245.395L342.05 195.704L340.31 194.718L312.152 244.409L313.892 245.395ZM342 14V188.309H344V14H342ZM342.05 195.704C343.328 193.449 344 190.901 344 188.309H342C342 190.556 341.418 192.764 340.31 194.718L342.05 195.704ZM300.842 253C306.244 253 311.229 250.095 313.892 245.395L312.152 244.409C309.844 248.482 305.524 251 300.842 251V253ZM-1 238C-1 246.284 5.71573 253 14 253V251C6.8203 251 1 245.18 1 238H-1ZM329 1C336.18 1 342 6.8203 342 14H344C344 5.71573 337.284 -1 329 -1V1ZM14 -1C5.71573 -1 -1 5.71574 -1 14H1C1 6.8203 6.8203 1 14 1V-1Z" fill="black" mask="url(#path-1-inside-1_1_602)"/>
</svg>
